<?xml version="1.0" encoding="UTF-8"?>
<svg width="250px" height="250px" viewBox="0 0 250 250" version="1.1" xmlns="http://www.w3.org/2000/svg" xmlns:xlink="http://www.w3.org/1999/xlink">
    <title>dribbble-ball-mark</title>
    <g id="Page-1" stroke="none" stroke-width="1" fill="none" fill-rule="evenodd" opacity="0.200000003">
        <g id="About_us_1440" transform="translate(-1020.000000, -5682.000000)" fill="#EA4C89">
            <g id="dribbble-ball-mark" transform="translate(1020.000000, 5241.000000)">
                <path d="M125,441 C55.9925,441 0,496.9925 0,566 C0,635.0075 55.9925,691 125,691 C193.8725,691 250,635.0075 250,566 C250,496.9925 193.8725,441 125,441 Z M207.565,498.62 C222.4775,516.785 231.4275,539.97 231.6975,565.05 C228.1725,564.3725 192.9225,557.1875 157.4025,561.6625 C156.59,559.9 155.91,558 155.0975,556.1025 C152.9275,550.95 150.4875,545.665 148.0475,540.6475 C187.365,524.65 205.26,501.6025 207.565,498.62 Z M125,459.4375 C152.115,459.4375 176.925,469.605 195.77,486.2825 C193.8725,488.9925 177.7375,510.55 139.7775,524.785 C122.2875,492.655 102.9,466.3525 99.9175,462.285 C107.9175,460.3875 116.3225,459.4375 125,459.4375 Z M79.5825,469.47 C82.43,473.2675 101.41,499.705 119.17,531.1575 C69.2775,544.4425 25.2175,544.172912 20.4725,544.172912 C27.385,511.0925 49.755,483.57 79.5825,469.47 Z M18.1675,566.135 C18.1675,565.05 18.1675,563.9675 18.1675,562.8825 C22.7775,563.0175 74.565,563.695 127.8475,547.6975 C130.965,553.6625 133.8125,559.7625 136.525,565.865 C135.1675,566.2725 133.6775,566.6775 132.32,567.085 C77.2775,584.845 47.9925,633.38 45.5525,637.4475 C28.6075,618.6025 18.1675,593.5225 18.1675,566.135 Z M125,672.8325 C100.325,672.8325 77.55,664.4275 59.5175,650.3275 C61.415,646.395 83.1075,604.64 143.3025,583.625 C143.575,583.49 143.71,583.49 143.98,583.3525 C159.03,622.2625 165.13,654.9375 166.7575,664.2925 C153.8775,669.85 139.7775,672.8325 125,672.8325 Z M184.5175,654.53 C183.4325,648.0225 177.7375,616.84 163.775,578.4725 C197.2625,573.185 226.545,581.8625 230.205,583.0825 C225.5975,612.7725 208.515,638.3975 184.5175,654.53 L184.5175,654.53 Z"></path>
            </g>
        </g>
    </g>
</svg>