<?xml version="1.0" encoding="UTF-8"?>
<svg width="1024px" height="1024px" viewBox="0 0 1024 1024" version="1.1" xmlns="http://www.w3.org/2000/svg" xmlns:xlink="http://www.w3.org/1999/xlink">
    <title>Favicon / 1024</title>
    <g id="Favicon-/-1024" stroke="none" stroke-width="1" fill="none" fill-rule="evenodd">
        <rect fill="#FFFFFF" x="0" y="0" width="1024" height="1024"></rect>
        <rect id="Rectangle" fill="#FFFFFF" x="0" y="0" width="1024" height="1024" rx="80"></rect>
        <g id="P." transform="translate(222.000000, 207.000000)" fill-rule="nonzero">
            <path d="M136.106638,612 L136.106638,417.234568 L271.373111,417.234568 C338.586265,417.234568 392.356789,397.925926 433.524846,360.148148 C474.692903,321.530864 494.85685,271.160494 494.85685,208.197531 C494.85685,145.234568 474.692903,94.8641975 433.524846,57.0864198 C393.196953,19.308642 339.42643,0 271.373111,0 L-2.84314965e-14,0 L-2.84314965e-14,612 L136.106638,612 Z M252.889494,301.382716 L136.106638,301.382716 L136.106638,120.888889 L252.889494,120.888889 C318.422319,120.888889 351.188732,150.271605 351.188732,209.876543 C351.188732,271.160494 318.422319,301.382716 252.889494,301.382716 Z" id="P" fill="#212529"></path>
            <polygon id="." fill="#1E8DE1" points="581 612 581 474.320988 456.655664 474.320988 456.655664 612"></polygon>
        </g>
    </g>
</svg>