<?xml version="1.0" encoding="UTF-8"?>
<svg width="762px" height="654px" viewBox="0 0 762 654" version="1.1" xmlns="http://www.w3.org/2000/svg" xmlns:xlink="http://www.w3.org/1999/xlink">
    <title>Group 12</title>
    <defs>
        <rect id="path-1" x="0" y="0" width="110" height="140" rx="20"></rect>
        <filter x="-37.7%" y="-27.5%" width="188.2%" height="169.3%" filterUnits="objectBoundingBox" id="filter-2">
            <feOffset dx="7" dy="10" in="SourceAlpha" result="shadowOffsetOuter1"></feOffset>
            <feGaussianBlur stdDeviation="14.5" in="shadowOffsetOuter1" result="shadowBlurOuter1"></feGaussianBlur>
            <feColorMatrix values="0 0 0 0 0.872553545   0 0 0 0 0.872553545   0 0 0 0 0.901409647  0 0 0 1 0" type="matrix" in="shadowBlurOuter1"></feColorMatrix>
        </filter>
    </defs>
    <g id="Page-1" stroke="none" stroke-width="1" fill="none" fill-rule="evenodd">
        <g id="Services_1440" transform="translate(158.000000, -2181.000000)">
            <g id="Group-12" transform="translate(-158.000000, 2181.000000)">
                <circle id="Oval" fill="#F4F4F7" cx="240" cy="240" r="240"></circle>
                <circle id="Oval" fill="#F4F4F7" cx="597" cy="489" r="165"></circle>
                <g id="Group-2" transform="translate(272.000000, 121.000000)">
                    <g id="Rectangle">
                        <use fill="black" fill-opacity="1" filter="url(#filter-2)" xlink:href="#path-1"></use>
                        <use fill="#FFFFFF" fill-rule="evenodd" xlink:href="#path-1"></use>
                    </g>
                    <rect id="Rectangle" fill="#66EAC8" x="72" y="10" width="8" height="6" rx="3"></rect>
                    <rect id="Rectangle" fill="#66EAC8" x="82" y="10" width="8" height="6" rx="3"></rect>
                    <rect id="Rectangle" fill="#66EAC8" x="92" y="10" width="8" height="6" rx="3"></rect>
                    <g id="Group" transform="translate(41.000000, 32.000000)" stroke="#1E8DE1" stroke-linecap="round" stroke-linejoin="round" stroke-width="2.25">
                        <g id="Regular">
                            <path d="M16.375,30.5 C16.375,32.363961 14.863961,33.875 13,33.875 C11.136039,33.875 9.625,32.363961 9.625,30.5 L9.625,24.875 L16.375,24.875 L16.375,30.5 Z" id="Shape"></path>
                            <path d="M16.375,24.875 C21.750178,23.1506137 25.3906387,18.1449803 25.3750502,12.5 C25.3750502,5.66547622 19.8345238,0.125 13,0.125 C6.16547622,0.125 0.624949811,5.66547622 0.624949811,12.5 C0.609361272,18.1449803 4.24982199,23.1506137 9.625,24.875" id="Shape"></path>
                            <path d="M10.75,13.625 L8.5,13.625 C7.25735931,13.625 6.25,12.6176407 6.25,11.375 C6.25,10.1323593 7.25735931,9.125 8.5,9.125 C9.74264069,9.125 10.75,10.1323593 10.75,11.375 L10.75,13.625 Z" id="Shape"></path>
                            <path d="M15.25,13.625 L17.5,13.625 C18.7426407,13.625 19.75,12.6176407 19.75,11.375 C19.75,10.1323593 18.7426407,9.125 17.5,9.125 C16.2573593,9.125 15.25,10.1323593 15.25,11.375 L15.25,13.625 Z" id="Shape"></path>
                            <polyline id="Shape" points="10.75 24.875 10.75 13.625 15.25 13.625 15.25 24.875"></polyline>
                            <line x1="9.625" y1="29.375" x2="16.375" y2="29.375" id="Shape"></line>
                        </g>
                    </g>
                    <text id="Light-controls" font-family="Helvetica" font-size="14" font-weight="normal" line-spacing="18" fill="#2E313B">
                        <tspan x="40.3208008" y="100">Light </tspan>
                        <tspan x="30.9897461" y="118">controls</tspan>
                    </text>
                </g>
            </g>
        </g>
    </g>
</svg>